<svg id="Layer_1" data-name="Layer 1" xmlns="http://www.w3.org/2000/svg" viewBox="0 0 106.92 122.88"><defs><style>.cls-1{fill-rule:evenodd;}</style></defs><title>computer-ip-address</title><path class="cls-1" d="M2.91,35.93H12.3c0,1.37.09,2.76.21,4.15H6.38a2.57,2.57,0,0,0-2.57,2.57v50.7a2.58,2.58,0,0,0,2.57,2.57h94.17a2.57,2.57,0,0,0,2.56-2.57V42.65a2.57,2.57,0,0,0-2.56-2.57H94.4c.12-1.39.19-2.78.21-4.15H104a2.91,2.91,0,0,1,2.91,2.91V104.1A2.92,2.92,0,0,1,104,107H2.91A2.92,2.92,0,0,1,0,104.1V38.84a2.91,2.91,0,0,1,2.91-2.91ZM86,46.28A67.41,67.41,0,0,1,69.81,77.51l0,0A64.7,64.7,0,0,1,55.62,89.26a2,2,0,0,1-2.28.08,80.26,80.26,0,0,1-19.7-17.57c-7.17-9-11.7-19-13.24-28.6s-.1-19.12,4.75-26.77A32.72,32.72,0,0,1,32.5,8.28C39.33,2.83,47.16,0,54.94,0A31.72,31.72,0,0,1,76.26,8.7a31.19,31.19,0,0,1,5.68,6.92c5.22,8.59,6.34,19.57,4.06,30.66ZM53.46,8.15a26,26,0,1,1-18.33,7.6,25.81,25.81,0,0,1,18.33-7.6Zm-13.54,38V21.33h6.49V46.19Zm11,0V21.33h10.9a12.66,12.66,0,0,1,2.62.29,5.85,5.85,0,0,1,2.45,1.17,6.09,6.09,0,0,1,1.81,2.67,13.6,13.6,0,0,1,.69,4.77,14.29,14.29,0,0,1-.67,4.84A6.55,6.55,0,0,1,67,37.81a5.63,5.63,0,0,1-2.33,1.24,10,10,0,0,1-2.46.32,12.18,12.18,0,0,1-1.32-.07c-.46,0-.9-.1-1.34-.18l-1.2-.24-.92-.18v7.49Zm6.49-12.64h3.75a1.49,1.49,0,0,0,1-.37,2,2,0,0,0,.54-1.09,9,9,0,0,0,.15-1.79,7.1,7.1,0,0,0-.19-1.74,2.09,2.09,0,0,0-.55-1,1.38,1.38,0,0,0-1-.36H57.42v6.4ZM40.28,111H66.64c.07,4.56,2,8.65,7,11.86H33.24c4.07-2.95,7-6.53,7-11.86Z"/></svg>