<svg width="680" viewBox="0 0 680 420" role="img" xmlns="http://www.w3.org/2000/svg">
  <title>XMSystems logo</title>
  <desc>XMSystems homelab logo featuring a geometric X mark in purple with neon green circuit trace accents, neon green XM wordmark, purple SYSTEMS text, and white tagline</desc>

  <g transform="translate(150, 210)">
    <line x1="-51" y1="-51" x2="-38" y2="-38" stroke="#39FF14" stroke-width="1.2" stroke-dasharray="2 3"/>
    <line x1="51"  y1="-51" x2="38"  y2="-38" stroke="#39FF14" stroke-width="1.2" stroke-dasharray="2 3"/>
    <line x1="-51" y1="51"  x2="-38" y2="38"  stroke="#39FF14" stroke-width="1.2" stroke-dasharray="2 3"/>
    <line x1="51"  y1="51"  x2="38"  y2="38"  stroke="#39FF14" stroke-width="1.2" stroke-dasharray="2 3"/>
    <line x1="-72" y1="0"  x2="-52" y2="0"  stroke="#888780" stroke-width="1.5" stroke-dasharray="3 3"/>
    <line x1="52"  y1="0"  x2="72"  y2="0"  stroke="#888780" stroke-width="1.5" stroke-dasharray="3 3"/>
    <line x1="0"   y1="-72" x2="0"  y2="-52" stroke="#888780" stroke-width="1.5" stroke-dasharray="3 3"/>
    <line x1="0"   y1="52"  x2="0"  y2="72"  stroke="#888780" stroke-width="1.5" stroke-dasharray="3 3"/>
    <circle cx="0" cy="0" r="52" fill="none" stroke="#7F77DD" stroke-width="1.5"/>
    <polygon points="-8,-8 -36,-36 -28,-44 0,-16" fill="#534AB7"/>
    <polygon points="8,-8 36,-36 28,-44 0,-16" fill="#534AB7"/>
    <polygon points="-8,8 -36,36 -28,44 0,16" fill="#534AB7"/>
    <polygon points="8,8 36,36 28,44 0,16" fill="#534AB7"/>
    <rect x="-11" y="-11" width="22" height="22" rx="3" fill="#7F77DD"/>
    <rect x="-4" y="-4" width="8" height="8" rx="1" fill="#39FF14"/>
    <circle cx="-72" cy="0"  r="4" fill="#888780"/>
    <circle cx="72"  cy="0"  r="4" fill="#888780"/>
    <circle cx="0"  cy="-72" r="4" fill="#888780"/>
    <circle cx="0"  cy="72"  r="4" fill="#888780"/>
    <circle cx="-55" cy="-55" r="4" fill="#39FF14"/>
    <circle cx="55"  cy="-55" r="4" fill="#39FF14"/>
    <circle cx="-55" cy="55"  r="4" fill="#39FF14"/>
    <circle cx="55"  cy="55"  r="4" fill="#39FF14"/>
  </g>

  <text x="270" y="190" font-family="'Courier New', monospace" font-size="72" font-weight="700" letter-spacing="-2" fill="#39FF14">XM</text>
  <text x="272" y="240" font-family="'Courier New', monospace" font-size="36" font-weight="400" letter-spacing="6" fill="#7F77DD">SYSTEMS</text>
  <line x1="270" y1="258" x2="580" y2="258" stroke="#39FF14" stroke-width="0.75"/>
  <text x="272" y="278" font-family="'Courier New', monospace" font-size="13" letter-spacing="2" fill="#ffffff">self-hosted infrastructure</text>

</svg>
